<?xml version="1.0" standalone="no"?>
<!DOCTYPE svg PUBLIC "-//W3C//DTD SVG 20010904//EN"
 "http://www.w3.org/TR/2001/REC-SVG-20010904/DTD/svg10.dtd">
<svg version="1.0" xmlns="http://www.w3.org/2000/svg"
 width="900.000000pt" height="663.000000pt" viewBox="0 0 900.000000 663.000000"
 preserveAspectRatio="xMidYMid meet">
<metadata>
Created by potrace 1.10, written by Peter Selinger 2001-2011
</metadata>
<g transform="translate(0.000000,663.000000) scale(0.100000,-0.100000)"
fill="#ff0000" stroke="none">
<path d="M4651 6619 c-1 -17 13 -53 54 -144 58 -131 148 -366 175 -460 60
-206 82 -329 79 -429 -1 -37 0 -68 2 -69 2 -2 22 -10 44 -19 125 -50 155 -63
205 -85 103 -47 195 -93 255 -128 33 -19 67 -38 75 -42 20 -9 136 -89 185
-126 78 -60 197 -183 239 -247 44 -67 86 -152 86 -176 0 -29 20 -22 38 13 17
34 30 86 46 190 10 59 -29 252 -69 348 -27 62 -78 162 -106 203 -16 24 -29 45
-29 48 0 7 -116 160 -158 209 -180 208 -491 483 -747 661 -159 110 -334 224
-345 224 -6 0 -15 10 -20 23 -6 15 -9 17 -9 6z"/>
<path d="M3625 5860 c-3 -5 8 -33 26 -62 17 -29 34 -60 39 -68 28 -48 94 -195
123 -275 34 -96 40 -112 48 -155 4 -25 13 -61 18 -80 6 -19 11 -74 11 -123 0
-75 3 -88 18 -93 37 -12 98 -36 125 -50 16 -8 37 -14 47 -14 10 0 21 -4 25
-10 3 -5 20 -14 38 -19 18 -5 57 -19 87 -31 30 -12 66 -25 80 -30 14 -5 50
-18 80 -29 30 -12 56 -21 58 -21 3 0 2 12 -1 28 -4 15 -10 47 -15 72 -5 25
-14 65 -21 90 -7 25 -19 70 -27 100 -22 82 -45 161 -59 200 -27 73 -58 145
-67 157 -8 10 -502 343 -600 405 -15 10 -30 13 -33 8z"/>
<path d="M4390 5708 c0 -7 7 -24 14 -38 36 -63 98 -198 131 -280 9 -25 22 -56
27 -70 62 -157 112 -361 154 -617 23 -145 23 -600 0 -745 -20 -126 -43 -236
-62 -304 -8 -28 -14 -58 -14 -67 0 -9 -6 -31 -14 -49 -7 -18 -23 -62 -34 -98
-12 -36 -30 -90 -42 -120 -12 -30 -24 -64 -27 -75 -4 -11 -12 -29 -20 -40 -7
-11 -13 -27 -13 -36 0 -9 -7 -22 -15 -29 -8 -7 -15 -21 -15 -31 0 -19 -17 -35
-28 -25 -3 4 2 37 11 74 74 305 101 635 81 1012 -6 118 -15 223 -19 232 -8 20
-1073 734 -1081 725 -4 -3 1 -25 11 -49 35 -84 57 -143 65 -173 5 -16 13 -43
18 -60 6 -16 17 -55 26 -85 8 -30 22 -80 30 -111 9 -31 16 -64 16 -75 0 -10 6
-50 14 -89 84 -399 49 -947 -86 -1340 -5 -16 -14 -43 -18 -60 -15 -53 -41
-120 -51 -129 -5 -6 -9 -20 -9 -32 0 -13 -5 -26 -10 -29 -20 -12 -23 28 -7 98
45 200 52 290 51 652 0 233 -4 357 -11 370 -6 11 -44 38 -85 59 -40 20 -113
59 -163 86 -49 26 -126 67 -170 90 -44 23 -107 56 -140 74 -95 51 -275 147
-333 177 -30 16 -59 32 -65 37 -46 35 -70 12 -43 -43 34 -70 50 -113 87 -235
11 -36 26 -86 34 -111 8 -26 15 -55 15 -65 0 -11 7 -48 15 -84 25 -112 40
-269 40 -430 0 -275 -39 -497 -136 -780 -82 -239 -282 -583 -436 -750 -45 -48
-15 -61 57 -25 14 7 77 34 140 60 63 26 129 52 145 60 17 7 50 20 75 30 25 9
59 23 75 30 17 7 48 19 70 28 109 41 131 50 149 59 11 6 31 14 45 18 14 5 51
18 81 30 30 12 66 25 80 30 14 5 50 18 80 30 30 12 69 26 85 30 17 5 50 16 75
26 89 33 236 85 265 94 29 8 59 18 135 45 19 7 82 27 140 45 58 18 123 38 145
45 79 25 221 66 315 92 30 8 78 21 105 28 28 8 61 16 75 19 14 3 45 10 70 16
172 45 359 83 550 114 295 48 311 49 610 49 268 1 304 -1 399 -22 57 -12 112
-26 122 -32 10 -5 25 -9 34 -9 9 0 58 -20 108 -44 106 -50 204 -135 240 -206
27 -52 52 -62 67 -28 6 13 19 37 29 53 102 159 181 427 181 610 -1 162 -47
293 -160 451 -58 82 -69 95 -149 188 -67 76 -342 350 -450 447 -52 46 -99 89
-106 96 -11 10 -123 107 -205 176 -116 98 -215 180 -268 222 -35 28 -96 76
-135 108 -40 31 -134 106 -211 165 -76 59 -153 118 -171 132 -61 47 -250 189
-300 225 -27 19 -98 71 -157 115 -107 80 -128 91 -128 68z"/>
<path d="M2666 5231 c-4 -6 20 -54 52 -108 130 -217 180 -359 188 -525 3 -66
9 -105 17 -110 12 -8 46 -18 152 -44 33 -9 83 -22 111 -30 28 -8 60 -14 71
-14 11 0 37 -7 56 -15 20 -8 50 -15 67 -15 26 0 30 3 30 28 0 16 -6 48 -14 73
-7 24 -21 71 -31 104 -9 33 -23 76 -30 95 -29 83 -37 107 -45 135 -20 75 -49
120 -90 139 -8 4 -42 22 -75 41 -33 19 -82 46 -110 60 -27 14 -63 34 -80 44
-16 10 -66 37 -110 61 -44 24 -89 48 -100 54 -11 6 -27 17 -37 24 -10 9 -18
10 -22 3z"/>
<path d="M639 1555 c-47 -7 -95 -18 -107 -24 -11 -6 -28 -11 -36 -11 -28 0
-149 -62 -218 -112 -76 -55 -156 -141 -184 -196 -10 -20 -23 -43 -29 -51 -12
-17 -32 -72 -50 -139 -20 -71 -20 -311 -1 -385 49 -186 188 -357 366 -447 25
-12 53 -27 64 -32 39 -20 125 -39 231 -52 197 -23 408 14 588 104 l46 23 3
181 c2 100 1 187 -1 194 -6 21 -55 10 -59 -13 -2 -11 -10 -38 -18 -60 -60
-153 -135 -247 -240 -300 -51 -25 -73 -30 -157 -33 -76 -3 -109 0 -150 14
-138 49 -251 152 -318 289 -95 198 -104 386 -27 595 48 129 168 266 283 321
68 33 74 34 190 34 155 -1 203 -20 295 -116 54 -57 132 -206 142 -274 2 -13
12 -21 30 -23 l27 -3 3 186 c2 103 1 191 -2 196 -3 4 -28 20 -55 34 -97 52
-200 82 -350 101 -127 16 -149 16 -266 -1z"/>
<path d="M2050 1555 c-67 -12 -124 -29 -200 -64 -63 -28 -166 -108 -219 -170
-44 -51 -111 -154 -111 -171 0 -4 -6 -21 -14 -37 -36 -72 -49 -147 -49 -283 0
-108 4 -148 21 -202 78 -251 233 -414 475 -500 54 -19 82 -22 222 -22 131 -1
169 3 210 18 74 27 164 74 216 112 55 40 161 151 183 191 56 105 73 150 97
257 23 109 24 188 3 286 -51 236 -173 405 -367 509 -83 45 -129 60 -232 76
-104 17 -133 17 -235 0z m190 -90 c245 -39 417 -452 340 -816 -35 -164 -80
-258 -165 -345 -90 -91 -129 -109 -245 -108 -86 1 -100 4 -145 30 -150 86
-243 263 -267 506 -25 257 44 501 180 637 26 26 63 55 82 65 39 21 137 45 160
41 8 -2 35 -7 60 -10z"/>
<path d="M4695 1555 c-246 -42 -401 -242 -364 -470 19 -121 80 -211 189 -280
42 -27 78 -46 250 -129 99 -47 166 -101 191 -153 18 -37 21 -57 17 -119 -9
-139 -82 -202 -237 -203 -75 -1 -89 2 -143 31 -63 33 -151 122 -179 180 -28
56 -47 102 -51 123 -2 14 -11 20 -28 20 l-25 0 -3 -172 -2 -173 37 -16 c170
-76 222 -88 388 -89 159 0 161 0 285 59 62 29 148 119 189 196 34 63 35 68 35
180 0 110 -1 118 -32 181 -55 113 -126 165 -357 259 -195 79 -256 124 -289
208 -21 56 -20 95 4 140 39 74 95 117 177 139 48 12 67 13 118 2 63 -13 148
-62 176 -101 32 -46 77 -134 83 -165 8 -35 30 -58 46 -48 6 4 10 65 10 164 l0
157 -52 21 c-99 37 -123 44 -217 58 -107 17 -120 17 -216 0z"/>
<path d="M2929 1528 c-23 -9 -17 -25 14 -39 48 -22 71 -39 83 -61 18 -31 20
-1154 3 -1191 -6 -14 -35 -37 -65 -52 -30 -15 -53 -33 -51 -39 5 -16 519 -16
524 0 2 6 -15 22 -39 34 -86 44 -78 -20 -78 650 l0 598 26 17 c22 14 44 16
123 13 112 -5 161 -25 208 -85 64 -80 68 -96 68 -243 l0 -135 -34 -53 c-49
-76 -114 -112 -203 -112 -61 0 -68 -2 -68 -19 0 -11 5 -23 11 -26 5 -4 15 -17
20 -28 5 -12 18 -35 29 -52 11 -16 24 -39 30 -50 14 -26 19 -35 130 -218 52
-87 100 -166 105 -175 58 -99 119 -154 230 -207 87 -41 118 -48 235 -52 l105
-3 -30 22 c-68 50 -192 189 -242 273 -7 11 -42 70 -78 130 -36 61 -70 117 -75
125 -5 8 -20 35 -32 60 -40 78 -59 100 -85 100 -31 0 -108 39 -97 50 5 4 27
10 49 13 94 11 170 61 227 149 40 61 68 153 68 224 0 63 -30 169 -64 222 -28
46 -106 108 -146 118 -14 4 -38 14 -55 23 -25 13 -91 16 -428 21 -219 3 -407
2 -418 -2z"/>
<path d="M5900 1530 c-22 -5 -25 -12 -92 -180 -16 -41 -35 -88 -43 -105 -7
-16 -19 -48 -28 -70 -22 -58 -77 -195 -92 -230 -7 -16 -20 -50 -30 -75 -9 -25
-23 -58 -30 -75 -7 -16 -20 -50 -30 -75 -10 -25 -23 -58 -30 -75 -7 -16 -21
-50 -30 -75 -10 -25 -23 -58 -30 -75 -7 -16 -21 -50 -30 -75 -10 -25 -23 -58
-30 -75 -7 -16 -21 -50 -31 -73 -19 -45 -58 -83 -107 -101 -16 -6 -27 -17 -24
-24 3 -9 54 -13 200 -15 165 -2 197 0 197 12 0 8 -20 26 -45 40 -54 32 -69 57
-60 103 6 32 13 52 50 138 7 17 23 56 36 88 15 39 30 59 43 63 12 2 120 3 241
2 l220 -3 24 -50 c13 -27 29 -63 36 -80 7 -16 18 -43 25 -60 39 -98 42 -114
23 -147 -10 -17 -38 -42 -63 -55 -84 -45 -68 -48 234 -48 302 0 325 4 241 46
-44 22 -85 64 -85 87 0 8 -20 57 -75 187 -7 17 -21 50 -30 75 -9 25 -23 59
-30 75 -7 17 -20 50 -30 75 -10 25 -23 59 -30 75 -7 17 -21 50 -30 75 -10 25
-23 59 -30 75 -7 17 -21 50 -30 75 -10 25 -23 59 -30 75 -7 17 -21 50 -30 75
-10 25 -23 59 -30 75 -8 17 -27 64 -43 105 -68 171 -86 211 -95 217 -12 7
-119 10 -147 3z m20 -423 c25 -66 43 -113 55 -142 7 -16 21 -50 30 -75 10 -25
23 -58 30 -75 39 -90 47 -114 41 -124 -9 -14 -362 -15 -371 -1 -6 10 21 93 62
190 44 102 73 174 73 180 0 4 9 29 21 54 23 53 37 51 59 -7z"/>
<path d="M7028 1533 c-273 -4 -291 -9 -200 -55 86 -43 82 -15 82 -648 0 -630
3 -603 -80 -646 -85 -45 -68 -49 214 -49 279 0 304 5 223 44 -89 43 -82 -10
-85 627 -2 364 1 578 8 603 6 22 19 43 32 50 23 12 52 29 76 44 10 7 10 12 1
23 -6 8 -14 13 -18 12 -3 -2 -117 -4 -253 -5z"/>
<path d="M7444 1531 c-10 -10 -2 -32 14 -39 53 -23 83 -49 93 -82 6 -23 9
-232 7 -601 -3 -640 4 -587 -85 -630 -81 -39 -56 -44 223 -44 282 0 299 4 214
49 -83 43 -80 16 -80 644 0 622 -1 615 65 628 20 3 71 4 114 2 61 -4 88 -10
124 -31 52 -31 97 -84 120 -145 24 -60 24 -247 0 -299 -48 -106 -119 -153
-229 -153 -40 0 -64 -4 -64 -11 0 -6 22 -48 48 -92 26 -45 51 -89 55 -97 9
-17 21 -37 58 -95 14 -22 29 -47 32 -55 4 -8 16 -28 27 -45 11 -16 24 -39 30
-50 6 -11 19 -33 30 -50 11 -16 23 -36 26 -44 4 -7 22 -36 40 -63 56 -82 107
-125 209 -173 87 -41 118 -48 235 -52 l105 -3 -30 22 c-96 72 -241 254 -315
393 -6 11 -19 34 -29 50 -11 17 -29 48 -41 70 -99 181 -95 175 -127 175 -31 0
-105 38 -98 50 4 6 21 10 38 10 92 0 221 93 264 190 64 146 50 307 -36 428
-52 74 -168 127 -296 137 -91 7 -735 12 -741 6z"/>
<path d="M8724 1505 c-4 -8 -11 -15 -16 -15 -13 0 -47 -41 -48 -57 0 -19 20
-16 27 4 9 23 37 50 62 58 12 3 21 11 21 16 0 15 -40 10 -46 -6z"/>
<path d="M8860 1511 c0 -5 13 -14 29 -19 16 -6 34 -20 41 -31 12 -24 30 -28
30 -7 0 7 -15 25 -34 40 -35 26 -66 34 -66 17z"/>
<path d="M8751 1438 c-11 -28 -9 -138 2 -156 10 -16 37 2 37 24 0 20 27 17 42
-4 19 -27 48 -35 55 -16 3 9 0 20 -8 25 -12 7 -11 13 4 38 23 39 22 63 -6 89
-34 32 -114 31 -126 0z m93 -34 c9 -22 -1 -34 -30 -34 -17 0 -24 6 -24 18 0
10 3 22 7 25 12 13 41 7 47 -9z"/>
<path d="M8960 1360 c0 -38 2 -70 4 -70 2 0 11 -3 20 -6 14 -5 16 5 16 70 0
69 -2 76 -20 76 -18 0 -20 -7 -20 -70z"/>
<path d="M8640 1360 c0 -22 5 -40 10 -40 6 0 10 18 10 40 0 22 -4 40 -10 40
-5 0 -10 -18 -10 -40z"/>
<path d="M8660 1284 c0 -19 40 -64 56 -64 7 0 14 -6 17 -13 7 -18 154 -20 165
-3 4 6 16 16 26 22 25 13 43 41 33 50 -4 5 -22 -8 -39 -27 -30 -33 -34 -34
-106 -34 -59 0 -76 4 -86 18 -7 9 -18 17 -24 17 -5 0 -13 11 -16 25 -7 28 -26
34 -26 9z"/>
</g>
</svg>
