<?xml version="1.0" standalone="no"?>
<!DOCTYPE svg PUBLIC "-//W3C//DTD SVG 20010904//EN"
 "http://www.w3.org/TR/2001/REC-SVG-20010904/DTD/svg10.dtd">
<svg version="1.0" xmlns="http://www.w3.org/2000/svg"
 width="300.000000pt" height="300.000000pt" viewBox="0 0 300.000000 300.000000"
 preserveAspectRatio="xMidYMid meet">
<metadata>
Created by potrace 1.10, written by Peter Selinger 2001-2011
</metadata>
<g transform="translate(0.000000,300.000000) scale(0.050000,-0.050000)"
fill="#ff0000" stroke="none">
<path d="M1026 3691 c-663 -207 -690 -1115 -41 -1365 68 -27 184 -35 590 -41
l505 -9 0 442 0 442 -466 0 -466 0 3 -155 3 -155 304 2 304 2 -6 -131 -6 -131
-309 6 c-465 8 -617 119 -597 434 20 320 183 395 834 386 l392 -6 6 154 6 154
-486 -1 c-343 -1 -511 -9 -570 -28z"/>
<path d="M2492 3675 c-80 -46 -152 -153 -152 -225 0 -39 10 -40 535 -33 599 7
645 -3 645 -135 0 -114 -33 -122 -473 -122 -638 0 -718 -64 -732 -585 l-7
-295 574 0 574 0 82 149 c45 82 82 154 82 161 0 7 -223 11 -495 9 l-495 -2 6
66 c15 188 4 184 494 186 440 1 519 24 636 186 161 224 43 582 -218 660 -162
49 -963 33 -1056 -20z"/>
<path d="M4455 3655 c-42 -41 -164 -249 -325 -555 -141 -269 -296 -559 -343
-644 -48 -85 -87 -160 -87 -166 0 -6 83 -9 185 -6 l185 6 272 526 c150 290
280 525 290 522 10 -2 74 -111 142 -241 l124 -237 -208 0 -208 0 74 -139 74
-139 207 -6 207 -6 75 -140 75 -140 183 -6 c101 -3 183 0 183 7 0 6 -22 49
-48 95 -26 46 -180 336 -341 644 -339 648 -371 690 -539 690 -96 0 -117 -8
-177 -65z"/>
<path d="M4301 2415 c-26 -68 19 -124 106 -131 42 -4 73 3 73 15 0 11 -20 21
-45 21 -64 1 -103 31 -89 68 8 20 36 32 73 32 34 0 61 9 61 20 0 45 -160 22
-179 -25z"/>
<path d="M4520 2430 c-59 -71 27 -167 131 -147 53 11 88 79 68 132 -21 54
-158 65 -199 15z m150 -60 c0 -46 -59 -64 -100 -30 -43 35 -13 83 48 76 37 -4
52 -18 52 -46z"/>
<path d="M4763 2383 c-37 -124 -7 -155 37 -38 24 64 25 64 38 16 19 -69 58
-73 85 -8 l23 57 20 -65 c11 -36 33 -65 49 -65 20 0 25 11 15 35 -8 19 -23 60
-34 90 -24 67 -71 71 -96 10 l-18 -45 -13 45 c-22 73 -80 55 -106 -32z"/>
</g>
</svg>
