<?xml version="1.0" standalone="no"?>
<!DOCTYPE svg PUBLIC "-//W3C//DTD SVG 20010904//EN"
 "http://www.w3.org/TR/2001/REC-SVG-20010904/DTD/svg10.dtd">
<svg version="1.0" xmlns="http://www.w3.org/2000/svg"
 width="900.000000pt" height="450.000000pt" viewBox="0 0 900.000000 450.000000"
 preserveAspectRatio="xMidYMid meet">
<metadata>
Created by potrace 1.10, written by Peter Selinger 2001-2011
</metadata>
<g transform="translate(0.000000,450.000000) scale(0.100000,-0.100000)"
fill="#ff0000" stroke="none">
<path d="M2740 2949 c-182 -16 -313 -41 -490 -94 -181 -55 -320 -167 -856
-687 -108 -106 -111 -108 -156 -108 -26 0 -50 5 -53 10 -3 6 -14 10 -23 10 -9
1 -35 9 -57 20 -22 11 -45 19 -52 20 -6 0 -13 3 -15 8 -5 11 -136 74 -147 71
-8 -3 45 -97 76 -134 5 -5 26 -39 48 -75 21 -36 42 -67 45 -70 3 -3 17 -23 30
-45 13 -22 29 -45 35 -52 5 -6 21 -26 35 -45 31 -42 96 -107 138 -138 19 -14
39 -30 45 -36 24 -21 77 -48 83 -41 5 5 -80 114 -107 137 -3 3 -18 27 -34 53
-40 70 -28 101 78 204 46 44 97 89 113 99 16 10 31 21 34 25 6 6 326 246 360
269 12 8 28 20 34 25 13 12 314 211 368 244 72 43 164 92 278 147 63 31 137
67 163 80 27 13 53 24 59 24 5 0 24 6 41 14 47 20 118 44 156 51 24 5 30 10
20 16 -16 10 -125 9 -249 -2z"/>
<path d="M3098 2705 c-3 -3 -34 -10 -69 -15 -35 -6 -80 -14 -99 -20 -140 -38
-187 -52 -202 -61 -10 -5 -23 -9 -29 -9 -39 0 -399 -186 -599 -310 -8 -5 -46
-28 -85 -51 -38 -23 -72 -45 -75 -49 -3 -3 -33 -23 -68 -44 -80 -48 -367 -241
-382 -256 -3 -3 -18 -14 -35 -24 -16 -10 -40 -28 -53 -39 l-23 -21 38 -19 c33
-16 91 -40 158 -67 33 -13 108 -38 145 -49 19 -5 69 -19 110 -31 75 -22 105
-29 235 -56 200 -41 325 -45 394 -12 53 26 223 191 267 258 16 25 31 47 34 50
4 3 17 23 30 45 13 22 27 42 30 45 11 9 64 103 105 185 22 44 43 82 48 83 4 2
7 8 7 13 0 9 15 46 56 136 23 50 19 62 -14 43 -9 -5 -39 -19 -67 -30 -27 -12
-59 -25 -70 -30 -11 -5 -42 -18 -70 -30 -27 -12 -59 -25 -70 -30 -11 -5 -42
-19 -70 -30 -62 -27 -136 -61 -287 -134 -65 -31 -121 -56 -126 -56 -5 0 -15
-6 -21 -14 -6 -7 -26 -16 -43 -20 -23 -5 -29 -9 -21 -17 8 -8 20 -7 44 5 18 9
38 16 45 16 7 0 52 13 101 29 48 16 104 32 123 36 19 4 40 10 45 14 6 3 28 11
50 17 22 6 48 14 57 19 49 21 12 -85 -79 -223 -51 -78 -179 -205 -233 -231
-80 -39 -215 -38 -405 1 -33 7 -64 16 -70 19 -5 4 -26 10 -45 14 -90 18 -180
58 -180 78 0 7 33 32 72 57 39 25 108 69 152 98 45 28 84 52 89 52 4 0 24 11
45 24 81 51 446 239 587 303 238 107 233 105 300 133 28 12 59 25 70 30 11 5
43 18 70 30 91 39 111 52 133 91 12 21 22 43 22 48 0 11 -62 16 -72 6z"/>
<path d="M3535 2692 c-3 -3 -5 -67 -5 -142 l0 -136 55 -59 54 -60 1 171 c0
118 4 174 12 182 8 8 49 12 119 12 136 0 141 -4 137 -104 l-3 -71 -80 -3
c-112 -3 -114 -5 -63 -55 23 -24 86 -88 138 -142 135 -141 130 -138 130 -76 0
47 -4 55 -61 121 -33 39 -57 75 -54 80 3 6 24 10 45 10 71 0 70 -2 70 136 0
119 -1 125 -22 133 -24 9 -464 12 -473 3z"/>
<path d="M4129 2688 c-18 -7 -19 -18 -19 -192 0 -158 2 -185 16 -190 25 -10
414 -7 414 3 0 27 -38 36 -174 41 l-141 5 0 60 0 60 153 3 c126 2 154 5 159
18 3 8 2 18 -2 22 -3 4 -75 9 -158 12 l-152 5 -3 48 c-5 75 0 77 159 77 134 0
172 9 138 32 -16 10 -360 7 -390 -4z"/>
<path d="M4644 2686 c-3 -7 -3 -95 -2 -196 l3 -185 29 -3 c15 -2 39 -1 52 2
20 5 23 13 26 64 l3 57 163 3 162 2 0 125 c0 121 -1 126 -23 134 -34 13 -408
10 -413 -3z m310 -32 c13 -5 16 -23 16 -90 l0 -84 -104 0 c-58 0 -107 4 -110
8 -3 5 -6 41 -8 81 -1 54 2 75 12 82 17 10 169 12 194 3z"/>
<path d="M5155 2678 c-3 -13 -4 -102 -3 -198 l3 -175 220 0 220 0 2 185 c2
102 -1 191 -5 197 -6 9 -21 10 -52 5 l-45 -8 -3 -167 c-3 -195 9 -180 -137
-175 l-90 3 -3 168 c-2 122 -6 169 -15 172 -6 2 -29 6 -49 10 -33 5 -38 3 -43
-17z"/>
<path d="M5690 2688 c-19 -7 -20 -18 -20 -192 0 -184 0 -186 23 -191 12 -3
110 -4 217 -3 l195 3 3 110 c2 95 0 111 -15 123 -14 10 -18 28 -18 80 l-1 67
-54 8 c-65 9 -302 5 -330 -5z m299 -42 c7 -8 11 -34 9 -58 l-3 -43 -105 0
-105 0 -3 49 c-2 32 1 52 10 57 23 15 184 11 197 -5z m6 -226 l0 -65 -105 0
-105 0 -3 54 c-5 83 -7 82 110 79 l103 -3 0 -65z"/>
<path d="M6864 2675 c-2 -11 -3 -99 -2 -195 l3 -175 194 -3 c170 -2 196 0 212
14 11 10 19 21 19 26 0 4 -69 8 -154 8 -131 0 -155 2 -160 16 -12 31 -7 259 7
277 10 14 35 17 152 19 117 3 140 6 140 18 0 13 -29 15 -203 15 -195 0 -203 0
-208 -20z"/>
<path d="M7588 2693 l-58 -4 0 -138 0 -138 42 -49 c24 -27 47 -52 53 -56 5 -5
84 -7 174 -5 l163 2 0 188 c1 103 -1 190 -4 193 -7 7 -298 13 -370 7z m262
-53 c6 -12 9 -72 8 -152 l-3 -133 -71 -3 -70 -3 -37 40 -37 40 0 105 c0 126
-1 125 117 126 72 0 84 -2 93 -20z"/>
<path d="M6205 2678 c-3 -8 -4 -95 -3 -193 l3 -180 168 -3 c169 -3 207 4 207
33 0 12 -22 15 -129 15 -83 0 -132 4 -137 11 -3 6 -7 81 -8 167 l-1 157 -48 3
c-32 2 -49 -1 -52 -10z"/>
<path d="M6678 2504 c-2 -108 1 -189 7 -195 12 -12 72 -12 80 1 5 8 8 242 5
373 0 4 -20 7 -45 7 l-44 0 -3 -186z"/>
<path d="M8062 2498 l3 -193 39 -3 c21 -2 43 1 49 7 5 5 9 45 8 88 -1 43 3 85
8 93 8 12 40 16 143 20 109 4 133 8 133 20 0 12 -22 15 -130 18 -140 3 -155 8
-155 58 0 46 22 54 155 54 68 0 130 3 139 6 46 18 -3 24 -189 24 l-205 0 2
-192z"/>
<path d="M507 2264 c-4 -4 0 -19 8 -33 7 -14 24 -48 37 -76 27 -59 75 -133
103 -157 28 -24 157 -88 177 -88 9 0 19 -4 23 -9 3 -6 26 -13 50 -17 25 -3 48
-10 51 -15 3 -5 10 -9 15 -9 5 0 -3 12 -19 28 -30 28 -44 40 -127 107 -27 22
-57 47 -65 55 -9 8 -52 46 -96 85 -43 38 -94 85 -112 102 -38 36 -36 36 -45
27z"/>
<path d="M3530 1850 l0 -200 225 0 225 0 0 93 c0 50 -4 98 -9 105 -5 9 -24 12
-52 10 l-44 -3 -5 -75 -5 -75 -112 -3 c-86 -2 -113 0 -114 10 -3 53 1 270 6
278 4 6 67 10 149 10 139 0 143 1 166 25 l23 25 -226 0 -227 0 0 -200z"/>
<path d="M4080 1849 l0 -200 53 3 52 3 3 81 c3 75 5 82 25 88 29 8 146 8 186
0 l31 -6 0 -84 0 -84 50 0 50 0 2 178 c2 97 -1 187 -6 200 -9 22 -10 22 -228
22 l-218 0 0 -201z m342 139 c4 -7 8 -32 8 -55 0 -55 -16 -63 -124 -63 -115 0
-116 0 -116 70 0 56 1 59 28 62 58 8 196 -2 204 -14z"/>
<path d="M5190 2048 c-1 -2 -1 -91 -2 -198 l-1 -195 219 -3 219 -2 -21 21
c-20 19 -32 21 -148 20 -155 -2 -166 3 -166 69 0 67 11 71 171 69 133 -1 167
7 140 34 -8 8 -53 12 -152 12 -113 0 -141 3 -149 15 -11 18 -13 80 -2 97 5 7
54 12 144 15 127 3 139 5 160 26 l22 22 -217 0 c-119 0 -217 -1 -217 -2z"/>
<path d="M5697 2043 c-3 -5 -4 -93 -3 -198 l1 -190 55 0 55 0 0 167 c0 91 3
170 7 174 9 9 172 14 211 7 25 -5 27 -9 27 -54 0 -45 -3 -51 -27 -60 -16 -6
-54 -9 -85 -6 -32 3 -60 2 -63 -3 -2 -4 5 -18 16 -31 12 -13 55 -63 97 -111
l76 -88 65 0 65 0 -30 33 c-121 130 -115 121 -97 135 9 6 34 12 55 12 l38 0 0
98 c0 63 -4 102 -12 110 -14 14 -443 18 -451 5z"/>
<path d="M6242 1948 l3 -103 159 -3 c100 -1 165 -7 173 -14 10 -8 13 -29 11
-67 l-3 -56 -162 -3 c-126 -2 -163 -5 -163 -16 0 -30 43 -37 240 -34 l195 3 0
110 0 110 -150 2 c-203 4 -195 1 -195 68 l0 55 143 0 c113 0 147 3 165 16 12
8 22 19 22 25 0 5 -89 9 -220 9 l-221 0 3 -102z"/>
<path d="M4620 1845 l0 -196 52 3 53 3 -3 72 c-4 84 5 153 20 153 6 0 25 -11
42 -23 56 -43 74 -49 99 -36 12 7 24 16 27 20 10 14 62 38 74 33 9 -3 12 -37
12 -112 l-1 -107 49 0 49 0 -1 184 c-1 101 -3 186 -5 188 -3 2 -54 -29 -115
-70 -126 -85 -105 -86 -245 11 -45 32 -88 61 -94 66 -10 6 -13 -35 -13 -189z"/>
</g>
</svg>
