<?xml version="1.0" standalone="no"?>
<!DOCTYPE svg PUBLIC "-//W3C//DTD SVG 20010904//EN"
 "http://www.w3.org/TR/2001/REC-SVG-20010904/DTD/svg10.dtd">
<svg version="1.0" xmlns="http://www.w3.org/2000/svg"
 width="300.000000pt" height="300.000000pt" viewBox="0 0 300.000000 300.000000"
 preserveAspectRatio="xMidYMid meet">
<metadata>
Created by potrace 1.10, written by Peter Selinger 2001-2011
</metadata>
<g transform="translate(0.000000,300.000000) scale(0.100000,-0.100000)"
fill="#ff0000" stroke="none">
<path d="M1315 2989 c-502 -69 -931 -372 -1154 -818 -79 -156 -131 -331 -149
-493 -8 -72 -7 -77 12 -86 12 -5 193 -80 402 -166 l381 -156 57 26 c32 14 89
31 127 37 l70 11 176 255 176 256 14 87 c15 99 39 168 87 241 220 342 720 350
947 15 22 -32 52 -89 67 -126 24 -60 26 -80 26 -197 0 -150 -14 -201 -90 -316
-96 -146 -224 -224 -412 -252 l-87 -13 -247 -177 c-136 -98 -249 -181 -252
-185 -3 -5 -10 -37 -15 -71 -36 -225 -225 -375 -450 -358 -159 12 -304 126
-357 279 l-15 46 -277 115 c-152 63 -278 113 -280 112 -6 -5 53 -154 88 -226
96 -190 297 -426 460 -541 433 -303 965 -366 1448 -171 187 75 333 174 493
333 219 219 359 485 416 790 26 143 23 411 -6 550 -127 604 -577 1054 -1176
1180 -116 24 -370 34 -480 19z"/>
<path d="M1930 2248 c-82 -12 -151 -51 -213 -118 -138 -149 -138 -357 0 -510
119 -133 328 -159 480 -61 225 145 229 483 7 629 -81 54 -176 75 -274 60z
m193 -118 c97 -49 151 -141 151 -255 0 -86 -24 -146 -84 -204 -179 -173 -480
-45 -480 205 0 119 76 229 187 270 58 22 168 14 226 -16z"/>
<path d="M975 1233 c-42 -11 -32 -20 61 -58 123 -50 167 -82 199 -145 70 -138
-3 -301 -155 -340 -59 -16 -102 -8 -217 40 -53 22 -98 39 -100 37 -9 -10 60
-87 104 -115 162 -104 378 -40 462 138 34 73 35 182 4 252 -31 67 -104 142
-166 168 -51 22 -152 34 -192 23z"/>
</g>
</svg>
