<?xml version="1.0" standalone="no"?>
<!DOCTYPE svg PUBLIC "-//W3C//DTD SVG 20010904//EN"
 "http://www.w3.org/TR/2001/REC-SVG-20010904/DTD/svg10.dtd">
<svg version="1.0" xmlns="http://www.w3.org/2000/svg"
 width="900.000000pt" height="561.000000pt" viewBox="0 0 900.000000 561.000000"
 preserveAspectRatio="xMidYMid meet">
<metadata>
Created by potrace 1.10, written by Peter Selinger 2001-2011
</metadata>
<g transform="translate(0.000000,561.000000) scale(0.100000,-0.100000)"
fill="#ff0000" stroke="none">
<path d="M6315 4915 c-22 -14 -47 -28 -55 -32 -8 -4 -58 -32 -110 -63 -52 -31
-102 -59 -110 -63 -8 -4 -24 -13 -35 -20 -11 -7 -63 -37 -115 -67 -52 -30
-104 -60 -115 -67 -11 -7 -29 -17 -40 -22 -11 -6 -49 -27 -85 -49 l-65 -38 -3
-332 -2 -332 24 0 c13 0 29 7 36 15 7 8 16 15 21 15 5 0 53 26 106 58 54 32
105 61 113 65 8 4 22 11 30 17 20 13 211 124 230 133 8 4 24 13 35 20 11 7 57
33 102 60 45 26 87 56 93 67 14 26 9 652 -5 656 -5 2 -28 -8 -50 -21z"/>
<path d="M2610 4176 l0 -754 82 -49 c46 -26 92 -53 103 -60 11 -7 27 -15 35
-19 8 -4 59 -34 113 -66 55 -32 100 -58 102 -58 2 0 49 -27 105 -61 197 -117
247 -141 254 -123 3 8 6 347 6 753 l0 738 -23 21 c-13 12 -26 22 -30 22 -4 0
-37 18 -73 41 -37 22 -77 45 -88 50 -12 5 -34 18 -51 29 -16 11 -37 23 -45 27
-8 4 -58 32 -110 63 -52 31 -102 59 -110 63 -8 4 -24 13 -35 20 -102 62 -205
117 -219 117 -15 0 -16 -63 -16 -754z"/>
<path d="M3597 4363 c-4 -3 -7 -446 -7 -983 0 -918 1 -978 18 -992 9 -8 44
-30 77 -49 33 -19 69 -39 80 -46 11 -7 27 -16 35 -20 8 -4 58 -32 110 -63 52
-31 102 -59 110 -63 8 -4 22 -11 30 -17 18 -12 206 -122 268 -156 23 -13 49
-24 57 -24 13 0 15 125 15 974 0 536 -3 981 -6 990 -3 9 -47 39 -98 68 -50 29
-100 58 -111 65 -11 7 -27 16 -35 20 -8 4 -70 40 -138 80 -68 40 -125 73 -127
73 -2 0 -61 34 -130 75 -130 77 -137 80 -148 68z"/>
<path d="M5325 4344 c-22 -14 -49 -29 -60 -35 -11 -5 -27 -13 -35 -19 -20 -13
-211 -124 -230 -133 -8 -4 -24 -13 -35 -20 -11 -7 -63 -37 -115 -67 -52 -30
-102 -59 -112 -65 -9 -5 -37 -21 -63 -35 -94 -49 -85 57 -85 -1042 0 -843 2
-969 15 -974 12 -5 107 46 270 143 11 7 27 16 35 20 19 9 210 120 230 133 8 6
22 13 30 17 8 4 48 26 88 50 40 24 76 43 81 43 4 0 17 10 29 23 l22 23 -2 979
c-2 641 -6 979 -13 981 -5 2 -28 -8 -50 -22z"/>
<path d="M6325 4074 c-16 -8 -43 -23 -60 -34 -16 -11 -37 -23 -45 -27 -8 -4
-58 -32 -110 -63 -52 -31 -102 -59 -110 -63 -8 -4 -28 -16 -45 -27 -16 -11
-39 -24 -51 -29 -19 -8 -137 -77 -174 -101 -8 -6 -22 -13 -30 -17 -8 -3 -39
-21 -67 -40 l-53 -33 0 -331 0 -331 24 6 c13 3 79 39 147 79 68 40 131 76 139
80 8 4 22 11 30 17 32 21 172 100 177 100 3 0 25 14 50 30 24 17 46 30 49 30
12 0 160 93 172 108 9 12 12 92 12 323 0 169 -3 314 -6 323 -7 19 -10 19 -49
0z"/>
<path d="M2348 1309 c-11 -6 -18 -22 -18 -39 0 -48 9 -60 46 -60 23 0 37 -6
44 -19 6 -12 10 -123 10 -289 l0 -270 23 -6 c12 -3 36 -6 54 -6 66 0 63 -15
63 284 0 149 4 276 8 282 4 6 21 15 37 21 27 9 30 14 33 55 3 40 0 46 -20 52
-38 10 -262 6 -280 -5z"/>
<path d="M2748 1309 c-17 -9 -18 -34 -18 -290 l0 -281 54 -56 54 -56 74 -2
c81 -2 108 9 166 68 l32 34 -2 295 -3 294 -44 3 c-25 2 -55 1 -68 -3 l-23 -5
0 -273 c0 -199 -3 -276 -12 -285 -16 -16 -63 -15 -77 1 -7 9 -12 106 -13 288
l-3 274 -50 2 c-27 2 -58 -2 -67 -8z"/>
<path d="M3263 1313 c-10 -4 -13 -81 -13 -338 0 -254 3 -335 13 -342 18 -15
107 -8 118 8 5 8 9 75 9 150 0 152 -1 149 69 149 43 0 61 14 61 48 0 44 -18
62 -60 62 -65 0 -70 5 -70 75 0 40 5 67 13 72 6 4 39 10 72 13 l60 5 3 44 c2
28 -1 47 -10 52 -14 9 -244 11 -265 2z"/>
<path d="M3898 1283 c-71 -63 -67 -45 -68 -313 l0 -246 51 -44 c64 -56 67 -57
156 -54 72 3 75 4 129 50 l55 47 -3 126 -3 126 -85 0 -85 0 -3 -49 c-2 -37 1
-52 16 -66 15 -14 17 -27 13 -66 l-6 -49 -40 0 -40 0 0 230 0 230 38 3 c32 3
38 0 46 -21 5 -14 7 -33 5 -44 -3 -10 0 -31 5 -46 10 -27 13 -28 73 -25 l63 3
3 71 3 70 -55 52 -55 52 -85 0 c-85 0 -86 0 -128 -37z"/>
<path d="M4412 1308 c-7 -7 -12 -23 -12 -35 0 -26 -22 -179 -45 -314 -8 -47
-15 -102 -15 -121 0 -20 -7 -71 -16 -113 -11 -55 -13 -80 -5 -88 12 -12 105
-16 116 -5 4 4 13 33 19 65 l12 58 43 3 c24 2 48 -1 53 -6 6 -6 13 -34 16 -63
l7 -54 50 -7 c31 -4 54 -3 62 4 15 12 12 68 -12 223 -21 137 -44 313 -51 378
-3 31 -12 64 -20 72 -19 19 -184 21 -202 3z m123 -295 c20 -96 17 -136 -8
-141 -37 -7 -48 16 -42 87 15 177 23 186 50 54z"/>
<path d="M4827 1313 c-10 -9 -9 -683 1 -684 38 -5 95 -4 105 3 9 5 11 44 10
147 -3 144 8 217 22 156 4 -16 13 -52 20 -80 8 -27 22 -88 32 -134 20 -92 34
-106 93 -94 22 4 32 13 36 32 25 116 40 176 58 236 l21 69 3 -162 c3 -182 3
-182 77 -176 22 1 43 3 48 3 4 1 6 155 5 344 l-3 342 -66 3 c-78 3 -92 -8
-107 -83 -11 -59 -28 -130 -48 -201 -8 -28 -14 -60 -14 -72 0 -30 -21 -72 -36
-72 -8 0 -16 12 -19 28 -11 57 -37 169 -47 207 -6 22 -17 69 -24 104 -7 35
-19 70 -25 77 -12 14 -129 20 -142 7z"/>
<path d="M5482 1308 c-9 -9 -12 -98 -12 -340 0 -313 1 -328 19 -338 29 -15 87
-12 105 6 14 13 16 58 16 338 0 237 -3 325 -12 334 -16 16 -100 16 -116 0z"/>
<path d="M5763 1313 c-10 -4 -13 -82 -13 -343 l0 -337 47 -6 c82 -9 83 -8 83
166 l1 152 20 -39 c20 -37 71 -169 90 -233 5 -18 18 -37 29 -43 19 -10 69 -8
89 4 8 5 11 101 11 341 0 369 5 345 -68 345 -20 0 -42 -4 -49 -8 -9 -5 -13
-51 -15 -145 -3 -132 -14 -175 -30 -110 -3 15 -16 53 -28 83 -12 30 -25 69
-29 85 -10 37 -30 77 -45 87 -12 9 -74 9 -93 1z"/>
<path d="M6311 1275 l-51 -48 0 -252 0 -253 51 -46 c28 -25 59 -47 68 -47 130
-12 164 -2 230 65 l42 42 -3 120 -3 119 -84 3 c-61 2 -87 -1 -92 -10 -16 -24
-10 -77 12 -99 16 -16 19 -30 17 -72 -3 -46 -6 -52 -27 -55 -12 -2 -34 -1 -47
2 l-24 6 0 218 c0 234 2 242 51 242 37 0 47 -17 51 -80 l3 -55 64 -3 c76 -4
81 1 81 82 0 57 -1 60 -51 110 l-51 51 -93 3 -94 4 -50 -47z"/>
</g>
</svg>
