<?xml version="1.0" standalone="no"?>
<!DOCTYPE svg PUBLIC "-//W3C//DTD SVG 20010904//EN"
 "http://www.w3.org/TR/2001/REC-SVG-20010904/DTD/svg10.dtd">
<svg version="1.0" xmlns="http://www.w3.org/2000/svg"
 width="300.000000pt" height="169.000000pt" viewBox="0 0 300.000000 169.000000"
 preserveAspectRatio="xMidYMid meet">
<metadata>
Created by potrace 1.10, written by Peter Selinger 2001-2011
</metadata>
<g transform="translate(0.000000,169.000000) scale(0.050000,-0.050000)"
fill="#ff0000" stroke="none">
<path d="M2743 3358 c-323 -41 -586 -205 -806 -501 -83 -113 -98 -145 -76
-159 76 -45 76 -45 26 -194 -284 -848 464 -1699 1333 -1516 1319 278 1205
2197 -140 2371 -168 22 -162 22 -337 -1z m412 -208 c776 -183 1071 -1127 529
-1694 -483 -507 -1321 -300 -1378 340 -17 187 75 408 206 494 74 48 74 35 -3
-118 -320 -636 585 -1080 986 -484 502 746 -501 1619 -1264 1101 -148 -100
-149 -52 -2 97 237 241 592 343 926 264z m-108 -467 c114 -50 284 -206 336
-309 66 -130 31 -140 -87 -26 -451 437 -1126 194 -1187 -428 -16 -162 -35
-176 -67 -51 -141 563 464 1054 1005 814z m0 -451 c139 -58 203 -251 121 -368
-29 -42 -28 -47 13 -81 l44 -35 -63 -53 c-218 -184 -554 3 -516 286 26 194
231 322 401 251z"/>
<path d="M1163 494 c10 -333 70 -423 285 -422 213 0 272 94 272 437 l0 231
-70 0 -70 0 0 -230 c0 -253 -24 -310 -130 -310 -106 0 -130 57 -130 310 l0
230 -82 0 -82 0 7 -246z"/>
<path d="M1800 410 l0 -330 172 0 c162 0 174 3 230 58 83 84 68 243 -27 274
-38 11 -37 13 3 51 45 41 55 134 22 196 -27 52 -125 81 -273 81 l-127 0 0
-330z m269 179 c55 -55 9 -129 -80 -129 -44 0 -49 9 -49 80 0 89 64 113 129
49z m39 -274 c34 -54 -9 -104 -95 -111 l-73 -6 0 82 0 82 73 -6 c43 -3 82 -21
95 -41z"/>
<path d="M2320 410 l0 -330 70 0 70 0 0 330 0 330 -70 0 -70 0 0 -330z"/>
<path d="M2598 682 c-111 -112 -66 -230 124 -321 88 -42 108 -60 108 -101 0
-70 -95 -81 -161 -19 -45 42 -50 43 -98 11 -136 -89 84 -230 271 -174 211 63
178 311 -52 399 -81 31 -100 47 -100 86 0 64 93 77 142 20 40 -47 156 14 134
70 -38 100 -278 118 -368 29z"/>
<path d="M3184 700 c-36 -23 -61 -48 -55 -58 5 -9 -8 -33 -30 -53 -135 -122
-74 -408 106 -490 396 -179 694 352 335 596 -88 60 -262 62 -356 5z m321 -162
c117 -124 31 -338 -135 -338 -159 0 -249 167 -159 296 17 24 25 44 18 44 -32
0 38 58 77 66 78 14 143 -9 199 -68z"/>
<path d="M3760 410 l0 -330 78 0 77 0 -10 130 -10 130 154 0 154 0 -7 53 c-6
53 -7 54 -151 49 l-145 -5 0 82 0 81 160 0 160 0 0 70 0 70 -230 0 -230 0 0
-330z"/>
<path d="M4280 670 c0 -70 0 -70 90 -70 l90 0 0 -260 0 -260 82 0 83 0 -8 260
-8 260 95 0 96 0 0 70 0 70 -260 0 -260 0 0 -70z"/>
</g>
</svg>
